<svg width="152" height="28" viewBox="0 0 152 28" fill="none" xmlns="http://www.w3.org/2000/svg">
<path d="M4.17086 22.2777V13.8542H12.9896V10.3649H4.17086V5.74419H14.2436V2.21395H0V22.2777H4.17086ZM19.9341 5.64878V2.06402H15.9949V5.64878H19.9341ZM19.9341 22.2777V7.42071H15.9949V22.2777H19.9341ZM29.0184 22.7956C31.4083 22.7956 33.212 21.946 34.4296 20.2468C35.1929 19.1927 35.62 18.075 35.7109 16.8937H31.7445C31.6627 17.6752 31.431 18.3113 31.0493 18.802C30.6677 19.2927 30.0225 19.538 29.1138 19.538C27.8326 19.538 26.9603 18.9201 26.4968 17.6843C26.2424 17.021 26.1152 16.1441 26.1152 15.0537C26.1152 13.9087 26.2424 12.9909 26.4968 12.3003C26.9784 11.0009 27.8735 10.3512 29.182 10.3512C30.0998 10.3512 30.7767 10.6511 31.2129 11.2508C31.5128 11.6961 31.6991 12.1958 31.7717 12.7501H35.7518C35.5337 10.6329 34.8317 9.1563 33.6459 8.32031C32.4601 7.48432 30.9358 7.06633 29.073 7.06633C26.883 7.06633 25.1656 7.7751 23.9207 9.19265C22.6758 10.6102 22.0534 12.5957 22.0534 15.1491C22.0534 17.4117 22.6168 19.2518 23.7435 20.6693C24.8703 22.0869 26.6286 22.7956 29.0184 22.7956ZM41.4013 22.2777V17.6025L43.0097 15.926L46.5672 22.2777H51.256L45.8584 13.1727L51.0516 7.48887H46.2401L41.4013 13.0773V2.25485H37.5849V22.2777H41.4013ZM56.3195 22.2777V2.18669H52.4348V22.2777H56.3195ZM65.3084 22.7684C67.5983 22.7684 69.3793 22.046 70.6515 20.6012C71.4693 19.6925 71.9282 18.7974 72.0281 17.916H68.0617C67.8527 18.3522 67.6119 18.6929 67.3393 18.9383C66.8395 19.3926 66.1898 19.6198 65.3902 19.6198C64.636 19.6198 63.9908 19.4335 63.4547 19.061C62.5733 18.4612 62.1053 17.4162 62.0508 15.926H72.219C72.2371 14.6448 72.1962 13.6634 72.0963 12.9819C71.9236 11.8187 71.5465 10.7965 70.965 9.91505C70.3198 8.9155 69.502 8.18401 68.5115 7.72058C67.5211 7.25715 66.4079 7.02544 65.1721 7.02544C63.0912 7.02544 61.3988 7.71149 60.0948 9.08361C58.7909 10.4557 58.1389 12.4276 58.1389 14.9991C58.1389 17.7434 58.8613 19.7243 60.3061 20.9419C61.7509 22.1596 63.4184 22.7684 65.3084 22.7684ZM68.1844 13.3635H62.1462C62.2734 12.4003 62.5846 11.637 63.0799 11.0736C63.5751 10.5102 64.2725 10.2285 65.1721 10.2285C65.999 10.2285 66.6919 10.4943 67.2507 11.0259C67.8096 11.5575 68.1208 12.3367 68.1844 13.3635ZM113.412 6.57991C114.603 6.57991 115.684 6.73135 116.655 7.03424C117.627 7.33712 118.447 7.72878 119.115 8.20922C119.533 8.50166 119.862 8.82544 120.102 9.18054C120.342 9.53565 120.462 9.9952 120.462 10.5592V21.5257L120.456 21.8533C120.418 22.8224 120.212 23.6689 119.836 24.3927C119.418 25.1969 118.849 25.8653 118.128 26.398C117.407 26.9306 116.561 27.3223 115.59 27.573C114.619 27.8236 113.579 27.949 112.472 27.949C110.572 27.949 109.078 27.6931 107.992 27.1813C106.906 26.6695 106.362 25.8392 106.362 24.6903C106.362 24.2099 106.462 23.7869 106.66 23.4213C106.859 23.0558 107.083 22.779 107.334 22.591C107.94 22.9252 108.624 23.2072 109.386 23.437C110.149 23.6668 110.937 23.7817 111.752 23.7817C112.88 23.7817 113.778 23.5937 114.446 23.2177C115.115 22.8417 115.449 22.2359 115.449 21.4004V20.899L115.186 21.0062C114.382 21.3108 113.425 21.463 112.316 21.463C111.376 21.463 110.483 21.322 109.637 21.04C108.791 20.7581 108.049 20.3194 107.412 19.7241C106.775 19.1287 106.263 18.3611 105.877 17.4211C105.49 16.4811 105.297 15.3636 105.297 14.0685C105.297 12.7943 105.501 11.6872 105.908 10.7472C106.315 9.8072 106.879 9.0291 107.6 8.41289C108.321 7.79667 109.177 7.33712 110.169 7.03424C111.162 6.73135 112.243 6.57991 113.412 6.57991ZM92.4478 1.56665C92.9073 1.56665 93.3199 1.59798 93.6854 1.66064C94.051 1.72331 94.3591 1.84864 94.6098 2.03664C94.8604 2.22464 95.0536 2.48052 95.1894 2.8043C95.3252 3.12807 95.3931 3.55106 95.3931 4.07328V22.2464L95.2691 22.2686C95.0471 22.3077 94.749 22.3578 94.3748 22.4187C93.9257 22.4918 93.4713 22.5284 93.0118 22.5284C92.5522 22.5284 92.1397 22.497 91.7741 22.4344C91.4086 22.3717 91.1005 22.2464 90.8498 22.0584C90.5992 21.8704 90.4059 21.6145 90.2702 21.2907C90.1344 20.9669 90.0665 20.5439 90.0665 20.0217V1.84864L90.1905 1.82645C90.4125 1.78728 90.7106 1.73724 91.0848 1.67631C91.5339 1.6032 91.9882 1.56665 92.4478 1.56665ZM100.455 6.98724C100.914 6.98724 101.327 7.01857 101.692 7.08124C102.058 7.1439 102.366 7.26923 102.617 7.45723C102.867 7.64523 103.061 7.90112 103.196 8.22489C103.332 8.54866 103.4 8.97166 103.4 9.49387V22.2464L103.276 22.2686C103.054 22.3077 102.756 22.3578 102.382 22.4187C101.933 22.4918 101.478 22.5284 101.019 22.5284C100.559 22.5284 100.147 22.497 99.7811 22.4344C99.4156 22.3717 99.1075 22.2464 98.8568 22.0584C98.6061 21.8704 98.4129 21.6145 98.2771 21.2907C98.1414 20.9669 98.0735 20.5439 98.0735 20.0217V7.26923L98.1975 7.24704C98.4194 7.20787 98.7175 7.15783 99.0918 7.0969C99.5409 7.02379 99.9952 6.98724 100.455 6.98724ZM125.399 1.56665C125.858 1.56665 126.271 1.59798 126.636 1.66064C127.002 1.72331 127.31 1.84864 127.561 2.03664C127.811 2.22464 128.004 2.48052 128.14 2.8043C128.276 3.12807 128.344 3.55106 128.344 4.07328V7.1439L128.469 7.09818C128.736 7.00482 129.107 6.89995 129.582 6.78357C130.135 6.6478 130.746 6.57991 131.415 6.57991C133.483 6.57991 135.096 7.0969 136.255 8.13089C137.415 9.16488 137.994 10.7054 137.994 12.7525V22.2464L137.898 22.2732C137.689 22.3269 137.392 22.3806 137.007 22.4344C136.558 22.497 136.094 22.5284 135.613 22.5284C135.154 22.5284 134.741 22.497 134.375 22.4344C134.01 22.3717 133.702 22.2464 133.451 22.0584C133.201 21.8704 133.007 21.6145 132.872 21.2907C132.736 20.9669 132.668 20.5439 132.668 20.0217V13.0658L132.663 12.857C132.631 12.1111 132.418 11.5801 132.026 11.2642C131.597 10.9195 131.07 10.7472 130.443 10.7472C130.025 10.7472 129.629 10.7994 129.253 10.9039C128.877 11.0083 128.574 11.1336 128.344 11.2798V22.2464L128.247 22.2732C128.039 22.3269 127.742 22.3806 127.357 22.4344C126.908 22.497 126.443 22.5284 125.963 22.5284C125.503 22.5284 125.091 22.497 124.725 22.4344C124.359 22.3717 124.051 22.2464 123.801 22.0584C123.55 21.8704 123.357 21.6145 123.221 21.2907C123.085 20.9669 123.017 20.5439 123.017 20.0217V1.84864L123.141 1.82645C123.363 1.78728 123.661 1.73724 124.036 1.67631C124.485 1.6032 124.939 1.56665 125.399 1.56665ZM87.8874 3.28996L87.9733 3.43722C88.0852 3.64611 88.1872 3.90512 88.2791 4.21428C88.394 4.60072 88.4514 5.00282 88.4514 5.42059C88.4514 6.23525 88.2791 6.81491 87.9344 7.15957C87.5898 7.50423 87.125 7.67656 86.5401 7.67656H79.9602V11.2172H86.8221L86.9192 11.3638C87.0446 11.571 87.1532 11.825 87.2451 12.1258C87.36 12.5018 87.4174 12.8987 87.4174 13.3165C87.4174 14.1103 87.2451 14.6795 86.9004 15.0241C86.5558 15.3688 86.091 15.5411 85.5061 15.5411H80.0229V22.1524L79.9164 22.1792C79.6875 22.2329 79.3626 22.2867 78.9419 22.3404C78.451 22.403 77.9653 22.4344 77.4849 22.4344C77.0045 22.4344 76.5815 22.3978 76.2159 22.3247C75.8504 22.2516 75.5423 22.121 75.2916 21.933C75.0409 21.745 74.8529 21.4839 74.7276 21.1497C74.6023 20.8155 74.5396 20.3768 74.5396 19.8337V6.20392L74.5461 5.96361C74.5892 5.17813 74.8482 4.54802 75.3229 4.07328C75.8451 3.55106 76.5554 3.28996 77.4536 3.28996H87.8874ZM138.285 3.1611C138.936 2.96529 140.047 2.92174 141.348 3.49706C142.661 4.07786 143.48 5.07405 143.805 6.48566L150.855 7.08483C150.943 7.0899 151.029 7.10758 151.116 7.13789C151.245 7.18336 151.315 7.24733 151.373 7.2974C151.516 7.42018 151.563 7.51484 151.631 7.68436C151.752 7.9858 151.715 8.34058 151.557 8.58384C151.303 8.97604 150.904 9.2298 150.362 9.34513L144.67 10.5549L145.675 15.2814C145.79 15.8239 146.044 16.1734 146.438 16.3298C146.831 16.4861 147.34 16.4978 147.966 16.3647C148.279 16.2982 148.597 16.2033 148.92 16.0802C149.243 15.957 149.52 15.8271 149.753 15.6904C149.99 15.8801 150.206 16.1013 150.401 16.3542C150.597 16.6071 150.737 16.9318 150.821 17.3282C151.133 18.794 148.826 20.1786 147.313 20.4504C145.913 20.7021 143.764 20.9111 142.536 17.6929C141.307 14.4746 139.378 9.08011 137.905 4.58451C137.778 4.19655 137.699 3.8155 137.836 3.50107C137.91 3.33112 137.963 3.25776 138.285 3.1611ZM113.663 10.7472C112.639 10.7472 111.872 11.0344 111.36 11.6088C110.848 12.1833 110.592 13.0032 110.592 14.0685C110.592 15.28 110.848 16.1521 111.36 16.6848C111.872 17.2174 112.525 17.4838 113.318 17.4838C114.175 17.4838 114.854 17.2853 115.355 16.8884V11.1232L115.259 11.073C115.12 11.0062 114.938 10.9394 114.713 10.8725C114.431 10.789 114.081 10.7472 113.663 10.7472ZM100.737 0C101.614 0 102.319 0.271552 102.852 0.814656C103.384 1.35776 103.651 2.02619 103.651 2.81996C103.651 3.61373 103.384 4.28216 102.852 4.82527C102.319 5.36837 101.614 5.63992 100.737 5.63992C99.8595 5.63992 99.1545 5.36837 98.6218 4.82527C98.0891 4.28216 97.8228 3.61373 97.8228 2.81996C97.8228 2.02619 98.0891 1.35776 98.6218 0.814656C99.1545 0.271552 99.8595 0 100.737 0Z" fill="url(#paint0_linear_402_1388)"/>
<defs>
<linearGradient id="paint0_linear_402_1388" x1="140.688" y1="13.6418" x2="1.39375" y2="27.8205" gradientUnits="userSpaceOnUse">
<stop stop-color="#299BD8"/>
<stop offset="1" stop-color="#1262AF"/>
</linearGradient>
</defs>
</svg>
